<?xml version="1.0" encoding="UTF-8"?>
<!DOCTYPE svg PUBLIC "-//W3C//DTD SVG 1.1//EN" "http://www.w3.org/Graphics/SVG/1.1/DTD/svg11.dtd">
<!-- Creator: CorelDRAW -->
<svg xmlns="http://www.w3.org/2000/svg" xml:space="preserve" width="43.3492mm" height="43.3492mm" version="1.1" style="shape-rendering:geometricPrecision; text-rendering:geometricPrecision; image-rendering:optimizeQuality; fill-rule:evenodd; clip-rule:evenodd"
viewBox="0 0 4334.92 4334.92"
 xmlns:xlink="http://www.w3.org/1999/xlink"
 xmlns:xodm="http://www.corel.com/coreldraw/odm/2003">
 <defs>
  <style type="text/css">
   <![CDATA[
    .fil0 {fill:white;fill-rule:nonzero}
   ]]>
  </style>
 </defs>
 <g id="Camada_x0020_1">
  <metadata id="CorelCorpID_0Corel-Layer"/>
  <path id="logo.svg" class="fil0" d="M1105.4 1629.61l0 601.93 -145.11 0 0 -601.93 145.11 0zm181.08 0l0 112.03 -503.13 0 0 -112.03 503.13 0zm559.34 288.97l0 24.4c0,46.02 -6.47,87.36 -19.43,124.02 -12.68,36.38 -30.73,67.52 -54.16,93.43 -23.42,25.63 -51.12,45.34 -83.09,59.12 -31.97,13.5 -67.25,20.25 -105.83,20.25 -38.86,0 -74.42,-6.75 -106.67,-20.25 -31.97,-13.78 -59.8,-33.49 -83.5,-59.12 -23.43,-25.91 -41.62,-57.05 -54.57,-93.43 -12.68,-36.66 -19.02,-78 -19.02,-124.02l0 -24.4c0,-46.02 6.34,-87.36 19.02,-124.02 12.95,-36.66 31,-67.8 54.15,-93.43 23.43,-25.91 51.13,-45.61 83.1,-59.12 32.25,-13.78 67.8,-20.67 106.66,-20.67 38.58,0 73.86,6.89 105.83,20.67 32.25,13.51 60.09,33.21 83.51,59.12 23.43,25.63 41.62,56.77 54.57,93.43 12.96,36.66 19.43,78 19.43,124.02zm-147.17 24.4l0 -25.22c0,-29.77 -2.62,-55.95 -7.86,-78.55 -4.96,-22.88 -12.4,-42.03 -22.32,-57.47 -9.92,-15.43 -22.19,-27 -36.8,-34.72 -14.33,-7.99 -30.72,-11.99 -49.19,-11.99 -19.29,0 -36.1,4 -50.44,11.99 -14.33,7.72 -26.32,19.29 -35.96,34.72 -9.65,15.44 -16.95,34.59 -21.91,57.47 -4.69,22.6 -7.03,48.78 -7.03,78.55l0 25.22c0,29.48 2.34,55.67 7.03,78.54 4.96,22.6 12.26,41.76 21.91,57.47 9.92,15.71 22.05,27.56 36.38,35.55 14.6,7.99 31.55,11.99 50.85,11.99 18.46,0 34.86,-4 49.19,-11.99 14.33,-7.99 26.32,-19.84 35.97,-35.55 9.92,-15.71 17.36,-34.87 22.32,-57.47 5.24,-22.87 7.86,-49.06 7.86,-78.54zm294.35 -313.37l118.23 0 134.36 418.78 134.36 -418.78 118.23 0 -204.63 601.93 -95.92 0 -204.63 -601.93zm-71.94 0l122.37 0 22.74 461.37 0 140.56 -145.11 0 0 -601.93zm526.69 0l122.78 0 0 601.93 -145.52 0 0 -140.56 22.74 -461.37zm334.04 -33.07l0 67.8c0,18.46 -3.72,37.34 -11.17,56.63 -7.16,19.3 -16.53,37.49 -28.11,54.57 -11.3,16.82 -23.42,31.01 -36.38,42.59l-61.18 -33.08c8.81,-15.71 16.81,-33.07 23.98,-52.09 7.44,-19.29 11.16,-42.3 11.16,-69.04l0 -67.38 101.7 0zm397.7 475.01c0,-9.37 -1.38,-17.78 -4.14,-25.22 -2.75,-7.72 -7.85,-14.88 -15.29,-21.5 -7.44,-6.61 -18.19,-13.23 -32.25,-19.84 -13.78,-6.89 -31.97,-14.06 -54.57,-21.5 -26.46,-8.82 -51.95,-18.74 -76.48,-29.77 -24.53,-11.3 -46.44,-24.39 -65.73,-39.27 -19.3,-15.16 -34.59,-32.8 -45.89,-52.92 -11.3,-20.39 -16.95,-44.09 -16.95,-71.1 0,-25.91 5.79,-49.2 17.36,-69.87 11.58,-20.95 27.7,-38.72 48.37,-53.33 20.95,-14.88 45.48,-26.18 73.59,-33.9 28.11,-7.99 58.84,-11.99 92.19,-11.99 44.1,0 82.96,7.72 116.58,23.15 33.9,15.16 60.36,36.8 79.37,64.91 19.3,27.83 28.94,60.77 28.94,98.8l-144.28 0c0,-15.16 -3.16,-28.52 -9.5,-40.1 -6.07,-11.57 -15.3,-20.67 -27.7,-27.28 -12.4,-6.62 -27.98,-9.92 -46.72,-9.92 -18.19,0 -33.48,2.75 -45.89,8.26 -12.4,5.52 -21.77,12.96 -28.11,22.33 -6.34,9.09 -9.51,19.15 -9.51,30.18 0,9.09 2.48,17.36 7.44,24.8 5.24,7.17 12.55,13.92 21.91,20.26 9.65,6.34 21.23,12.4 34.73,18.19 13.78,5.79 29.22,11.44 46.3,16.95 31.98,10.2 60.36,21.63 85.17,34.31 25.08,12.4 46.16,26.6 63.25,42.58 17.36,15.71 30.45,33.63 39.27,53.75 9.1,20.12 13.64,42.85 13.64,68.21 0,27.01 -5.23,50.99 -15.71,71.93 -10.47,20.95 -25.49,38.73 -45.06,53.33 -19.57,14.33 -42.99,25.22 -70.28,32.66 -27.28,7.44 -57.74,11.16 -91.36,11.16 -30.87,0 -61.32,-3.85 -91.37,-11.57 -29.76,-7.99 -56.77,-20.12 -81.02,-36.38 -24.26,-16.54 -43.69,-37.62 -58.29,-63.25 -14.34,-25.91 -21.5,-56.64 -21.5,-92.19l145.52 0c0,17.64 2.34,32.52 7.03,44.64 4.68,12.13 11.57,21.92 20.67,29.36 9.09,7.16 20.26,12.4 33.48,15.71 13.23,3.03 28.39,4.54 45.48,4.54 18.47,0 33.35,-2.62 44.65,-7.85 11.3,-5.51 19.57,-12.68 24.8,-21.5 5.24,-9.09 7.86,-19.01 7.86,-29.76zm-2268.8 568.23l0 -206.5 72.34 0 0 206.5c0,20.12 -4.61,37.55 -13.85,52.3 -9.09,14.74 -21.49,26.18 -37.2,34.31 -15.58,7.99 -33.08,11.99 -52.51,11.99 -20.12,0 -38.03,-3.38 -53.74,-10.13 -15.57,-6.75 -27.84,-17.16 -36.79,-31.21 -8.82,-14.06 -13.23,-31.97 -13.23,-53.75l72.76 0c0,10.2 1.17,18.19 3.51,23.98 2.34,5.65 5.79,9.65 10.34,11.99 4.68,2.21 10.4,3.31 17.15,3.31 6.62,0 12.2,-1.65 16.75,-4.96 4.68,-3.45 8.26,-8.34 10.74,-14.68 2.49,-6.48 3.73,-14.19 3.73,-23.15zm241.43 -143.25l-73.38 237.72 -77.93 0 110.59 -300.97 49.4 0 -8.68 63.25zm60.77 237.72l-73.59 -237.72 -9.51 -63.25 50.03 0 111.2 300.97 -78.13 0zm-2.9 -112.25l0 56.02 -154.4 0 0 -56.02 154.4 0zm328.46 56.43l0 55.82 -217.87 0 0 -55.82 217.87 0zm-1.45 -207.94l-180.45 263.76 -52.5 0 0 -38.25 182.52 -262.72 50.43 0 0 37.21zm-23.35 -37.21l0 56.02 -210.64 0 0 -56.02 210.64 0zm283.18 245.15l0 55.82 -217.87 0 0 -55.82 217.87 0zm-1.44 -207.94l-180.46 263.76 -52.5 0 0 -38.25 182.52 -262.72 50.44 0 0 37.21zm-23.36 -37.21l0 56.02 -210.63 0 0 -56.02 210.63 0zm318.33 220.97c0,-4.68 -0.69,-8.89 -2.07,-12.61 -1.38,-3.86 -3.93,-7.44 -7.65,-10.75 -3.72,-3.3 -9.1,-6.61 -16.12,-9.92 -6.89,-3.45 -15.99,-7.03 -27.29,-10.75 -13.23,-4.41 -25.97,-9.37 -38.24,-14.88 -12.26,-5.65 -23.22,-12.2 -32.87,-19.64 -9.64,-7.58 -17.29,-16.4 -22.94,-26.46 -5.65,-10.19 -8.47,-22.04 -8.47,-35.55 0,-12.95 2.89,-24.6 8.68,-34.93 5.78,-10.48 13.85,-19.36 24.18,-26.67 10.48,-7.44 22.74,-13.09 36.8,-16.95 14.05,-3.99 29.42,-5.99 46.09,-5.99 22.05,0 41.48,3.86 58.29,11.57 16.95,7.58 30.18,18.4 39.69,32.46 9.65,13.92 14.47,30.38 14.47,49.4l-72.14 0c0,-7.58 -1.59,-14.27 -4.76,-20.05 -3.03,-5.79 -7.65,-10.34 -13.84,-13.64 -6.21,-3.31 -13.99,-4.96 -23.36,-4.96 -9.1,0 -16.75,1.37 -22.95,4.13 -6.2,2.76 -10.88,6.48 -14.05,11.16 -3.17,4.55 -4.76,9.58 -4.76,15.09 0,4.55 1.24,8.68 3.72,12.4 2.62,3.59 6.27,6.96 10.96,10.13 4.82,3.17 10.61,6.2 17.36,9.1 6.89,2.89 14.61,5.72 23.15,8.47 15.99,5.1 30.18,10.82 42.58,17.16 12.54,6.2 23.09,13.3 31.63,21.29 8.68,7.85 15.23,16.81 19.64,26.87 4.54,10.06 6.82,21.43 6.82,34.11 0,13.5 -2.62,25.49 -7.86,35.96 -5.23,10.48 -12.74,19.37 -22.53,26.67 -9.78,7.17 -21.49,12.61 -35.14,16.33 -13.64,3.72 -28.87,5.58 -45.68,5.58 -15.43,0 -30.66,-1.93 -45.68,-5.79 -14.88,-3.99 -28.39,-10.06 -40.52,-18.19 -12.12,-8.27 -21.84,-18.81 -29.14,-31.62 -7.17,-12.96 -10.75,-28.32 -10.75,-46.1l72.76 0c0,8.82 1.17,16.26 3.51,22.32 2.35,6.07 5.79,10.96 10.34,14.68 4.55,3.58 10.13,6.2 16.74,7.85 6.62,1.52 14.2,2.28 22.74,2.28 9.23,0 16.67,-1.31 22.33,-3.93 5.64,-2.76 9.78,-6.34 12.4,-10.75 2.62,-4.54 3.93,-9.51 3.93,-14.88zm281.12 -21.91l72.34 0c-0.96,20.95 -6.61,39.41 -16.95,55.4 -10.33,15.98 -24.67,28.45 -42.99,37.41 -18.19,8.82 -39.69,13.23 -64.5,13.23 -20.11,0 -38.1,-3.38 -53.94,-10.13 -15.71,-6.75 -29.08,-16.47 -40.11,-29.14 -10.88,-12.68 -19.22,-28.05 -25.01,-46.1 -5.65,-18.05 -8.47,-38.38 -8.47,-60.98l0 -16.33c0,-22.6 2.96,-42.92 8.88,-60.98 6.07,-18.19 14.61,-33.62 25.64,-46.3 11.16,-12.81 24.53,-22.6 40.1,-29.35 15.57,-6.75 32.86,-10.13 51.88,-10.13 26.18,0 48.3,4.69 66.35,14.06 18.06,9.37 32.04,22.25 41.97,38.65 9.92,16.26 15.77,34.8 17.57,55.6l-72.35 0c-0.28,-11.3 -2.21,-20.74 -5.79,-28.31 -3.58,-7.72 -9.23,-13.51 -16.95,-17.37 -7.72,-3.86 -17.98,-5.78 -30.8,-5.78 -8.96,0 -16.74,1.65 -23.36,4.96 -6.61,3.3 -12.12,8.54 -16.53,15.7 -4.41,7.17 -7.72,16.47 -9.93,27.91 -2.06,11.3 -3.09,24.94 -3.09,40.93l0 16.74c0,15.99 0.96,29.63 2.89,40.93 1.93,11.3 5.03,20.53 9.3,27.7 4.27,7.16 9.78,12.47 16.54,15.91 6.89,3.31 15.29,4.96 25.21,4.96 11.03,0 20.33,-1.72 27.91,-5.16 7.58,-3.59 13.44,-8.96 17.57,-16.13 4.13,-7.3 6.34,-16.6 6.62,-27.9zm309.43 -79.58l0 55.81 -154.41 0 0 -55.81 154.41 0zm-130.22 -119.48l0 300.97 -72.56 0 0 -300.97 72.56 0zm179.01 0l0 300.97 -72.35 0 0 -300.97 72.35 0zm300.75 144.49l0 12.2c0,23.01 -3.24,43.68 -9.71,62.01 -6.34,18.19 -15.37,33.76 -27.08,46.71 -11.71,12.82 -25.56,22.67 -41.55,29.56 -15.98,6.75 -33.62,10.13 -52.91,10.13 -19.44,0 -37.21,-3.38 -53.34,-10.13 -15.98,-6.89 -29.9,-16.74 -41.75,-29.56 -11.71,-12.95 -20.81,-28.52 -27.28,-46.71 -6.34,-18.33 -9.51,-39 -9.51,-62.01l0 -12.2c0,-23.02 3.17,-43.68 9.51,-62.01 6.47,-18.33 15.5,-33.9 27.07,-46.72 11.72,-12.95 25.57,-22.8 41.55,-29.56 16.12,-6.89 33.9,-10.33 53.33,-10.33 19.29,0 36.93,3.44 52.92,10.33 16.12,6.76 30.04,16.61 41.75,29.56 11.72,12.82 20.81,28.39 27.29,46.72 6.47,18.33 9.71,38.99 9.71,62.01zm-73.58 12.2l0 -12.61c0,-14.89 -1.31,-27.98 -3.93,-39.28 -2.48,-11.44 -6.2,-21.01 -11.17,-28.73 -4.95,-7.72 -11.09,-13.51 -18.39,-17.36 -7.17,-4 -15.37,-6 -24.6,-6 -9.64,0 -18.05,2 -25.22,6 -7.16,3.85 -13.16,9.64 -17.98,17.36 -4.82,7.72 -8.48,17.29 -10.96,28.73 -2.34,11.3 -3.51,24.39 -3.51,39.28l0 12.61c0,14.74 1.17,27.83 3.51,39.27 2.48,11.3 6.14,20.88 10.96,28.73 4.96,7.86 11.02,13.78 18.19,17.78 7.3,3.99 15.78,5.99 25.43,5.99 9.23,0 17.43,-2 24.59,-5.99 7.17,-4 13.16,-9.92 17.98,-17.78 4.97,-7.85 8.69,-17.43 11.17,-28.73 2.62,-11.44 3.93,-24.53 3.93,-39.27zm365.86 -12.2l0 12.2c0,23.01 -3.23,43.68 -9.71,62.01 -6.34,18.19 -15.37,33.76 -27.08,46.71 -11.71,12.82 -25.56,22.67 -41.55,29.56 -15.98,6.75 -33.62,10.13 -52.91,10.13 -19.43,0 -37.21,-3.38 -53.33,-10.13 -15.99,-6.89 -29.91,-16.74 -41.76,-29.56 -11.71,-12.95 -20.81,-28.52 -27.28,-46.71 -6.34,-18.33 -9.51,-39 -9.51,-62.01l0 -12.2c0,-23.02 3.17,-43.68 9.51,-62.01 6.47,-18.33 15.5,-33.9 27.08,-46.72 11.71,-12.95 25.56,-22.8 41.54,-29.56 16.13,-6.89 33.9,-10.33 53.33,-10.33 19.3,0 36.94,3.44 52.92,10.33 16.12,6.76 30.04,16.61 41.75,29.56 11.72,12.82 20.81,28.39 27.29,46.72 6.48,18.33 9.71,38.99 9.71,62.01zm-73.58 12.2l0 -12.61c0,-14.89 -1.31,-27.98 -3.93,-39.28 -2.48,-11.44 -6.2,-21.01 -11.16,-28.73 -4.96,-7.72 -11.09,-13.51 -18.4,-17.36 -7.16,-4 -15.36,-6 -24.6,-6 -9.64,0 -18.05,2 -25.22,6 -7.16,3.85 -13.16,9.64 -17.98,17.36 -4.82,7.72 -8.47,17.29 -10.96,28.73 -2.34,11.3 -3.51,24.39 -3.51,39.28l0 12.61c0,14.74 1.17,27.83 3.51,39.27 2.49,11.3 6.14,20.88 10.96,28.73 4.96,7.86 11.03,13.78 18.19,17.78 7.31,3.99 15.78,5.99 25.43,5.99 9.23,0 17.43,-2 24.59,-5.99 7.17,-4 13.16,-9.92 17.99,-17.78 4.96,-7.85 8.68,-17.43 11.16,-28.73 2.62,-11.44 3.93,-24.53 3.93,-39.27zm310.05 88.46l0 55.82 -152.13 0 0 -55.82 152.13 0zm-126.28 -245.15l0 300.97 -72.56 0 0 -300.97 72.56 0z"/>
 </g>
</svg>
