<?xml version="1.0" encoding="UTF-8"?>
<!DOCTYPE svg PUBLIC "-//W3C//DTD SVG 1.1//EN" "http://www.w3.org/Graphics/SVG/1.1/DTD/svg11.dtd">
<!-- Creator: CorelDRAW -->
<svg xmlns="http://www.w3.org/2000/svg" xml:space="preserve" width="350px" height="150px" version="1.1" style="shape-rendering:geometricPrecision; text-rendering:geometricPrecision; image-rendering:optimizeQuality; fill-rule:evenodd; clip-rule:evenodd"
viewBox="0 0 350 150"
 xmlns:xlink="http://www.w3.org/1999/xlink"
 xmlns:xodm="http://www.corel.com/coreldraw/odm/2003">
 <defs>
  <style type="text/css">
   <![CDATA[
    .fil0 {fill:white;fill-rule:nonzero}
   ]]>
  </style>
 </defs>
 <g id="Camada_x0020_1">
  <metadata id="CorelCorpID_0Corel-Layer"/>
  <path id="logo.svg" class="fil0" d="M49.56 11.47l0 71.1 -17.14 0 0 -71.1 17.14 0zm21.39 0l0 13.24 -59.43 0 0 -13.24 59.43 0zm66.06 34.13l0 2.89c0,5.43 -0.76,10.31 -2.29,14.64 -1.5,4.3 -3.63,7.98 -6.4,11.04 -2.77,3.03 -6.04,5.35 -9.81,6.98 -3.78,1.6 -7.95,2.39 -12.5,2.39 -4.59,0 -8.79,-0.79 -12.6,-2.39 -3.78,-1.63 -7.07,-3.95 -9.87,-6.98 -2.76,-3.06 -4.91,-6.74 -6.44,-11.04 -1.5,-4.33 -2.25,-9.21 -2.25,-14.64l0 -2.89c0,-5.43 0.75,-10.31 2.25,-14.64 1.53,-4.33 3.66,-8.01 6.39,-11.04 2.77,-3.06 6.04,-5.39 9.82,-6.98 3.81,-1.63 8.01,-2.44 12.6,-2.44 4.55,0 8.72,0.81 12.5,2.44 3.81,1.59 7.09,3.92 9.86,6.98 2.77,3.03 4.92,6.71 6.45,11.04 1.53,4.33 2.29,9.21 2.29,14.64zm-17.38 2.89l0 -2.98c0,-3.52 -0.31,-6.61 -0.93,-9.28 -0.59,-2.7 -1.46,-4.96 -2.64,-6.79 -1.17,-1.82 -2.62,-3.19 -4.34,-4.1 -1.7,-0.94 -3.63,-1.42 -5.81,-1.42 -2.28,0 -4.27,0.48 -5.96,1.42 -1.69,0.91 -3.11,2.28 -4.25,4.1 -1.14,1.83 -2,4.09 -2.59,6.79 -0.55,2.67 -0.83,5.76 -0.83,9.28l0 2.98c0,3.48 0.28,6.57 0.83,9.27 0.59,2.67 1.45,4.93 2.59,6.79 1.17,1.86 2.61,3.26 4.3,4.2 1.72,0.94 3.73,1.41 6.01,1.41 2.18,0 4.11,-0.47 5.81,-1.41 1.69,-0.94 3.1,-2.34 4.24,-4.2 1.18,-1.86 2.05,-4.12 2.64,-6.79 0.62,-2.7 0.93,-5.79 0.93,-9.27zm34.76 -37.02l13.97 0 15.87 49.47 15.87 -49.47 13.96 0 -24.17 71.1 -11.33 0 -24.17 -71.1zm-8.49 0l14.45 0 2.69 54.5 0 16.6 -17.14 0 0 -71.1zm62.21 0l14.5 0 0 71.1 -17.19 0 0 -16.6 2.69 -54.5zm39.45 -3.9l0 8.01c0,2.18 -0.44,4.41 -1.32,6.68 -0.85,2.28 -1.95,4.43 -3.32,6.45 -1.34,1.99 -2.77,3.66 -4.3,5.03l-7.22 -3.91c1.04,-1.85 1.98,-3.9 2.83,-6.15 0.88,-2.28 1.32,-5 1.32,-8.15l0 -7.96 12.01 0zm46.97 56.1c0,-1.11 -0.16,-2.1 -0.49,-2.98 -0.32,-0.91 -0.92,-1.76 -1.8,-2.54 -0.88,-0.78 -2.15,-1.56 -3.81,-2.34 -1.63,-0.81 -3.78,-1.66 -6.45,-2.54 -3.12,-1.04 -6.13,-2.21 -9.03,-3.52 -2.9,-1.33 -5.49,-2.88 -7.76,-4.63 -2.28,-1.79 -4.09,-3.88 -5.42,-6.25 -1.34,-2.41 -2.01,-5.21 -2.01,-8.4 0,-3.06 0.69,-5.81 2.05,-8.25 1.37,-2.48 3.28,-4.58 5.72,-6.3 2.47,-1.76 5.37,-3.1 8.69,-4.01 3.32,-0.94 6.95,-1.41 10.89,-1.41 5.21,0 9.8,0.91 13.77,2.73 4,1.79 7.13,4.35 9.37,7.67 2.28,3.28 3.42,7.17 3.42,11.67l-17.04 0c0,-1.79 -0.37,-3.37 -1.12,-4.74 -0.72,-1.37 -1.81,-2.44 -3.28,-3.22 -1.46,-0.78 -3.3,-1.17 -5.51,-1.17 -2.15,0 -3.96,0.32 -5.42,0.97 -1.47,0.65 -2.57,1.53 -3.32,2.64 -0.75,1.07 -1.13,2.26 -1.13,3.56 0,1.08 0.3,2.05 0.88,2.93 0.62,0.85 1.48,1.65 2.59,2.4 1.14,0.75 2.51,1.46 4.1,2.14 1.63,0.69 3.45,1.36 5.47,2.01 3.78,1.2 7.13,2.55 10.06,4.05 2.96,1.46 5.45,3.14 7.47,5.03 2.05,1.85 3.6,3.97 4.64,6.35 1.07,2.37 1.61,5.06 1.61,8.05 0,3.19 -0.62,6.03 -1.86,8.5 -1.23,2.47 -3.01,4.57 -5.32,6.3 -2.31,1.69 -5.08,2.98 -8.3,3.86 -3.22,0.87 -6.82,1.31 -10.79,1.31 -3.65,0 -7.24,-0.45 -10.79,-1.36 -3.52,-0.95 -6.71,-2.38 -9.57,-4.3 -2.87,-1.95 -5.16,-4.44 -6.89,-7.47 -1.69,-3.06 -2.53,-6.69 -2.53,-10.89l17.18 0c0,2.08 0.28,3.84 0.83,5.27 0.56,1.44 1.37,2.59 2.44,3.47 1.08,0.85 2.4,1.47 3.96,1.86 1.56,0.35 3.35,0.53 5.37,0.53 2.18,0 3.94,-0.31 5.27,-0.92 1.34,-0.66 2.32,-1.5 2.93,-2.54 0.62,-1.08 0.93,-2.25 0.93,-3.52zm-267.97 67.12l0 -24.39 8.55 0 0 24.39c0,2.37 -0.55,4.43 -1.64,6.17 -1.07,1.74 -2.54,3.09 -4.39,4.05 -1.84,0.95 -3.91,1.42 -6.21,1.42 -2.37,0 -4.49,-0.4 -6.34,-1.2 -1.84,-0.79 -3.29,-2.02 -4.35,-3.68 -1.04,-1.66 -1.56,-3.78 -1.56,-6.35l8.59 0c0,1.2 0.14,2.15 0.42,2.83 0.27,0.67 0.68,1.14 1.22,1.42 0.55,0.26 1.23,0.39 2.02,0.39 0.79,0 1.45,-0.2 1.98,-0.59 0.56,-0.4 0.98,-0.98 1.27,-1.73 0.3,-0.77 0.44,-1.68 0.44,-2.73zm28.52 -16.92l-8.67 28.07 -9.2 0 13.06 -35.54 5.83 0 -1.02 7.47zm7.18 28.07l-8.7 -28.07 -1.12 -7.47 5.91 0 13.13 35.54 -9.22 0zm-0.35 -13.25l0 6.61 -18.23 0 0 -6.61 18.23 0zm38.8 6.66l0 6.59 -25.74 0 0 -6.59 25.74 0zm-0.17 -24.56l-21.32 31.15 -6.2 0 0 -4.51 21.56 -31.03 5.96 0 0 4.39zm-2.76 -4.39l0 6.61 -24.88 0 0 -6.61 24.88 0zm33.44 28.95l0 6.59 -25.73 0 0 -6.59 25.73 0zm-0.17 -24.56l-21.31 31.15 -6.2 0 0 -4.51 21.56 -31.03 5.95 0 0 4.39zm-2.75 -4.39l0 6.61 -24.88 0 0 -6.61 24.88 0zm37.59 26.09c0,-0.55 -0.08,-1.05 -0.24,-1.49 -0.16,-0.45 -0.47,-0.87 -0.9,-1.26 -0.44,-0.39 -1.08,-0.79 -1.91,-1.18 -0.81,-0.4 -1.89,-0.83 -3.22,-1.27 -1.56,-0.52 -3.07,-1.1 -4.52,-1.75 -1.45,-0.67 -2.74,-1.44 -3.88,-2.32 -1.14,-0.9 -2.04,-1.94 -2.71,-3.13 -0.67,-1.2 -1,-2.6 -1,-4.2 0,-1.53 0.34,-2.9 1.02,-4.12 0.69,-1.24 1.64,-2.29 2.86,-3.15 1.24,-0.88 2.69,-1.55 4.35,-2 1.66,-0.48 3.47,-0.71 5.44,-0.71 2.61,0 4.9,0.45 6.89,1.36 2,0.9 3.56,2.18 4.68,3.84 1.14,1.64 1.71,3.59 1.71,5.83l-8.52 0c0,-0.89 -0.19,-1.68 -0.56,-2.37 -0.36,-0.68 -0.9,-1.22 -1.63,-1.61 -0.74,-0.39 -1.66,-0.58 -2.76,-0.58 -1.08,0 -1.98,0.16 -2.71,0.49 -0.74,0.32 -1.29,0.76 -1.66,1.31 -0.38,0.54 -0.57,1.14 -0.57,1.79 0,0.53 0.15,1.02 0.44,1.46 0.31,0.42 0.74,0.82 1.3,1.2 0.57,0.37 1.25,0.73 2.05,1.07 0.81,0.34 1.72,0.68 2.73,1 1.89,0.6 3.57,1.28 5.03,2.03 1.48,0.73 2.73,1.57 3.74,2.51 1.02,0.93 1.8,1.99 2.32,3.18 0.53,1.19 0.8,2.53 0.8,4.03 0,1.59 -0.31,3.01 -0.93,4.24 -0.61,1.24 -1.5,2.29 -2.66,3.15 -1.15,0.85 -2.53,1.49 -4.15,1.93 -1.61,0.44 -3.41,0.66 -5.39,0.66 -1.82,0 -3.62,-0.23 -5.4,-0.68 -1.76,-0.47 -3.35,-1.19 -4.78,-2.15 -1.44,-0.98 -2.58,-2.22 -3.45,-3.74 -0.84,-1.53 -1.27,-3.34 -1.27,-5.44l8.6 0c0,1.04 0.14,1.92 0.41,2.64 0.28,0.71 0.69,1.29 1.22,1.73 0.54,0.42 1.2,0.73 1.98,0.93 0.78,0.18 1.68,0.27 2.69,0.27 1.09,0 1.97,-0.16 2.63,-0.47 0.67,-0.32 1.16,-0.75 1.47,-1.27 0.31,-0.53 0.46,-1.12 0.46,-1.76zm33.21 -2.58l8.54 0c-0.11,2.47 -0.78,4.65 -2,6.54 -1.22,1.89 -2.91,3.36 -5.08,4.42 -2.15,1.04 -4.69,1.56 -7.62,1.56 -2.37,0 -4.5,-0.4 -6.37,-1.2 -1.85,-0.79 -3.43,-1.94 -4.73,-3.44 -1.29,-1.49 -2.28,-3.31 -2.96,-5.44 -0.67,-2.13 -1,-4.54 -1,-7.2l0 -1.93c0,-2.67 0.35,-5.07 1.05,-7.21 0.72,-2.14 1.73,-3.97 3.03,-5.46 1.32,-1.52 2.9,-2.67 4.73,-3.47 1.84,-0.8 3.89,-1.2 6.13,-1.2 3.09,0 5.71,0.56 7.84,1.66 2.13,1.11 3.78,2.63 4.96,4.57 1.17,1.92 1.86,4.11 2.07,6.57l-8.54 0c-0.04,-1.34 -0.27,-2.45 -0.69,-3.35 -0.42,-0.91 -1.09,-1.59 -2,-2.05 -0.91,-0.46 -2.12,-0.68 -3.64,-0.68 -1.06,0 -1.98,0.19 -2.76,0.58 -0.78,0.39 -1.43,1.01 -1.95,1.86 -0.52,0.84 -0.91,1.94 -1.17,3.29 -0.25,1.34 -0.37,2.95 -0.37,4.84l0 1.98c0,1.88 0.12,3.5 0.34,4.83 0.23,1.33 0.6,2.42 1.1,3.27 0.51,0.85 1.16,1.47 1.96,1.88 0.81,0.39 1.8,0.59 2.97,0.59 1.31,0 2.4,-0.21 3.3,-0.61 0.9,-0.43 1.59,-1.06 2.08,-1.91 0.48,-0.86 0.74,-1.96 0.78,-3.29zm36.54 -9.4l0 6.59 -18.23 0 0 -6.59 18.23 0zm-15.38 -14.11l0 35.54 -8.57 0 0 -35.54 8.57 0zm21.15 0l0 35.54 -8.55 0 0 -35.54 8.55 0zm35.52 17.06l0 1.44c0,2.72 -0.38,5.16 -1.15,7.33 -0.75,2.14 -1.81,3.98 -3.2,5.51 -1.38,1.52 -3.02,2.68 -4.9,3.49 -1.89,0.8 -3.98,1.2 -6.25,1.2 -2.3,0 -4.4,-0.4 -6.3,-1.2 -1.89,-0.81 -3.54,-1.97 -4.93,-3.49 -1.39,-1.53 -2.46,-3.37 -3.23,-5.51 -0.75,-2.17 -1.12,-4.61 -1.12,-7.33l0 -1.44c0,-2.72 0.37,-5.16 1.12,-7.32 0.77,-2.17 1.83,-4.01 3.2,-5.52 1.38,-1.53 3.02,-2.69 4.91,-3.49 1.9,-0.82 4,-1.22 6.3,-1.22 2.28,0 4.36,0.4 6.25,1.22 1.9,0.8 3.55,1.96 4.93,3.49 1.38,1.51 2.46,3.35 3.22,5.52 0.77,2.16 1.15,4.6 1.15,7.32zm-8.69 1.44l0 -1.49c0,-1.76 -0.16,-3.3 -0.47,-4.64 -0.29,-1.35 -0.73,-2.48 -1.32,-3.39 -0.58,-0.91 -1.31,-1.6 -2.17,-2.05 -0.84,-0.47 -1.81,-0.71 -2.9,-0.71 -1.14,0 -2.14,0.24 -2.98,0.71 -0.85,0.45 -1.56,1.14 -2.13,2.05 -0.56,0.91 -1,2.04 -1.29,3.39 -0.28,1.34 -0.41,2.88 -0.41,4.64l0 1.49c0,1.74 0.13,3.29 0.41,4.64 0.29,1.33 0.73,2.47 1.29,3.39 0.59,0.93 1.31,1.63 2.15,2.1 0.87,0.47 1.87,0.71 3.01,0.71 1.09,0 2.06,-0.24 2.9,-0.71 0.85,-0.47 1.56,-1.17 2.12,-2.1 0.59,-0.92 1.03,-2.06 1.32,-3.39 0.31,-1.35 0.47,-2.9 0.47,-4.64zm43.21 -1.44l0 1.44c0,2.72 -0.38,5.16 -1.15,7.33 -0.75,2.14 -1.81,3.98 -3.2,5.51 -1.38,1.52 -3.01,2.68 -4.9,3.49 -1.89,0.8 -3.97,1.2 -6.25,1.2 -2.3,0 -4.4,-0.4 -6.3,-1.2 -1.89,-0.81 -3.53,-1.97 -4.93,-3.49 -1.39,-1.53 -2.46,-3.37 -3.23,-5.51 -0.74,-2.17 -1.12,-4.61 -1.12,-7.33l0 -1.44c0,-2.72 0.38,-5.16 1.12,-7.32 0.77,-2.17 1.84,-4.01 3.2,-5.52 1.39,-1.53 3.02,-2.69 4.91,-3.49 1.9,-0.82 4,-1.22 6.3,-1.22 2.28,0 4.36,0.4 6.25,1.22 1.9,0.8 3.55,1.96 4.93,3.49 1.38,1.51 2.46,3.35 3.22,5.52 0.77,2.16 1.15,4.6 1.15,7.32zm-8.69 1.44l0 -1.49c0,-1.76 -0.16,-3.3 -0.46,-4.64 -0.3,-1.35 -0.74,-2.48 -1.32,-3.39 -0.59,-0.91 -1.31,-1.6 -2.18,-2.05 -0.84,-0.47 -1.81,-0.71 -2.9,-0.71 -1.14,0 -2.13,0.24 -2.98,0.71 -0.85,0.45 -1.55,1.14 -2.12,2.05 -0.57,0.91 -1,2.04 -1.3,3.39 -0.28,1.34 -0.41,2.88 -0.41,4.64l0 1.49c0,1.74 0.13,3.29 0.41,4.64 0.3,1.33 0.73,2.47 1.3,3.39 0.58,0.93 1.3,1.63 2.14,2.1 0.87,0.47 1.87,0.71 3.01,0.71 1.09,0 2.06,-0.24 2.9,-0.71 0.85,-0.47 1.56,-1.17 2.13,-2.1 0.58,-0.92 1.02,-2.06 1.32,-3.39 0.3,-1.35 0.46,-2.9 0.46,-4.64zm36.62 10.45l0 6.59 -17.97 0 0 -6.59 17.97 0zm-14.92 -28.95l0 35.54 -8.57 0 0 -35.54 8.57 0z"/>
 </g>
</svg>
